<?xml version="1.0" encoding="utf-8"?>
<!-- Generator: Adobe Illustrator 24.3.0, SVG Export Plug-In . SVG Version: 6.00 Build 0)  -->
<svg version="1.1" xmlns="http://www.w3.org/2000/svg" xmlns:xlink="http://www.w3.org/1999/xlink" x="0px" y="0px"
	 viewBox="0 0 300 300" style="enable-background:new 0 0 300 300;" xml:space="preserve">
<style type="text/css">
	.st0{fill:#3E405B;}
</style>
<g id="Layer_1">
</g>
<g id="Layer_3">
	<path class="st0" d="M145,17.78c-70,0-126.75,56.75-126.75,126.75S75,271.28,145,271.28s126.75-56.75,126.75-126.75
		S215,17.78,145,17.78z M189.64,222.2c-14.88,0-23.55-7.62-23.55-22.61v-25.89h-6.72h-3h-6.48v-14.06h6.48h3h6.72v-15.35h0.04
		v-33.03c0-10.19-4.57-14.88-11.95-14.88c-8.2,0-13.94,5.27-13.94,16.52v31.63h-18.28v-33.27c0-10.19-4.33-14.88-11.95-14.88
		c-8.08,0-13.82,5.27-13.82,16.52v31.63H77.92V81.5h17.46v7.26c4.69-5.39,11.72-8.2,19.8-8.2c8.79,0,16.28,3.4,20.74,10.31
		c5.04-6.44,13.24-10.31,22.73-10.31c15,0,25.77,8.67,25.77,27.88v36.08h-0.04v15.1h15.7v14.06h-15.7v25.66
		c0,5.39,2.93,8.32,7.85,8.32c2.69,0,5.39-0.82,7.38-2.34l4.92,12.89C200.77,220.91,195.27,222.2,189.64,222.2z"/>
</g>
</svg>
