<svg id="Layer_1" data-name="Layer 1" xmlns="http://www.w3.org/2000/svg" viewBox="0 0 35 35"><defs><style>.cls-1{fill:#3e405b;}</style></defs><g id="Layer_3" data-name="Layer 3"><path class="cls-1" d="M20,2.5A17.5,17.5,0,1,0,37.5,20,17.51,17.51,0,0,0,20,2.5Zm6.16,28.22c-2.05,0-3.25-1-3.25-3.12V24H20.68V22.09h2.23V20h0V15.41c0-1.41-.63-2.06-1.65-2.06s-1.93.73-1.93,2.28V20H16.82V15.41c0-1.41-.6-2.06-1.65-2.06s-1.91.73-1.91,2.28V20H10.74V11.3h2.41v1a3.54,3.54,0,0,1,2.73-1.13,3.27,3.27,0,0,1,2.87,1.42,3.89,3.89,0,0,1,3.13-1.42c2.08,0,3.56,1.19,3.56,3.85v5h0v2.08H27.6V24H25.44v3.55a1,1,0,0,0,1.08,1.15,1.7,1.7,0,0,0,1-.33l.68,1.78A3.56,3.56,0,0,1,26.16,30.72Z" transform="translate(-2.5 -2.5)"/></g></svg>