<?xml version="1.0" encoding="utf-8"?>
<!-- Generator: Adobe Adobe Illustrator 24.2.0, SVG Export Plug-In . SVG Version: 6.00 Build 0)  -->
<svg version="1.1" xmlns="http://www.w3.org/2000/svg" xmlns:xlink="http://www.w3.org/1999/xlink" x="0px" y="0px"
	 viewBox="0 0 100 100" style="enable-background:new 0 0 100 100;" xml:space="preserve">
<style type="text/css">
	.st0{fill:#61254B;}
</style>
<g id="Layer_1">
</g>
<g id="Layer_2">
	<g>
		<g>
			<path class="st0" d="M50,7.1C26.31,7.1,7.1,26.31,7.1,50S26.31,92.9,50,92.9S92.9,73.69,92.9,50S73.69,7.1,50,7.1z M73.22,70.63
				c-0.72,2.87-2.33,5.9-5.98,6.68c-3.21,0.69-6.6-0.59-8.63-2.73c-2.04-2.15-2.99-4.91-3.65-7.58c-1.36-5.51-1.21-11.13-0.77-16.72
				c-2.08,0.16-4.15,0.32-6.23,0.48c-1.37,0.11-2.53-1.08-2.53-2.17c0-1.26,1.17-2.04,2.53-2.17c2.2-0.21,4.41-0.42,6.61-0.63
				c0.21-2.38,0.4-4.76,0.47-7.15c0.09-2.89,0.36-6.22-0.83-8.98c-0.84-1.94-3.1-3.7-5.47-2.24c-2.65,1.64-2.88,4.9-3.31,7.43
				c-0.38,2.21-4.65,2.12-5.11,0c-0.47-2.12-1.28-4.11-2.59-5.96c-0.34-0.48-1.14-1.89-1.9-1.96c-0.68-0.07-1.42,0.58-1.81,0.97
				c-1.43,1.42-1.95,3.29-2.04,5.23c0.27,2.28,0.54,4.56,0.8,6.83c0.3,2.56-4.75,3.11-5.23,0.61c-0.27-1.39-0.48-2.93-0.56-4.5
				c-0.33-2.81-0.67-5.62-1-8.43c-0.15-1.23,1.34-2.28,2.67-2.28c0.5,0,0.93,0.12,1.3,0.31c0.6-0.66,1.29-1.27,2.12-1.8
				c4.42-2.8,8-0.27,10.38,3.2c0.46-0.72,1.01-1.4,1.68-2.02c2.53-2.33,6.45-3.29,9.89-1.93c6.61,2.6,6.44,10.02,6.31,15.28
				c-0.06,2.31-0.23,4.62-0.43,6.93c0.72-0.06,1.43-0.13,2.15-0.17c0.66-0.05,1.32-0.07,1.98-0.1c0.82-0.03,1.61-0.18,2.41,0.07
				c1.59,0.49,2.08,2.01,0.96,3.12c-1.13,1.11-3.41,1.17-5,1.34c-0.96,0.1-1.92,0.18-2.89,0.27c-0.19,2.36-0.34,4.73-0.35,7.1
				c-0.01,3.05,0.21,6.1,0.97,9.09c0.55,2.14,1.26,5.4,3.78,6.54c5.63,2.56,4.72-10.19,4.45-12.31c-0.32-2.53,4.72-3.08,5.17-0.6
				C74.24,63.33,74.12,67.01,73.22,70.63z"/>
		</g>
	</g>
</g>
</svg>
